<?xml version="1.0" encoding="UTF-8"?>
<svg xmlns="http://www.w3.org/2000/svg" xmlns:xlink="http://www.w3.org/1999/xlink" width="100px" height="100px" viewBox="0 0 100 100" version="1.1">
<g id="surface1">
<path style=" stroke:none;fill-rule:nonzero;fill:rgb(40%,20%,27.45098%);fill-opacity:1;" d="M 59.023438 0.390625 C 57.207031 0.878906 55.644531 1.71875 54.003906 3.066406 C 52.480469 4.316406 51.210938 5 49.882812 5.253906 C 49.355469 5.371094 44.179688 5.625 38.378906 5.859375 C 32.578125 6.074219 27.265625 6.308594 26.582031 6.367188 C 22.03125 6.796875 18.046875 9.863281 16.523438 14.121094 C 15.683594 16.464844 4.296875 52.734375 3.964844 54.101562 C 3.554688 55.859375 3.710938 58.496094 4.355469 60.273438 C 4.980469 62.050781 20.332031 93.710938 21.09375 94.824219 C 22.480469 96.835938 24.921875 98.652344 27.34375 99.472656 C 28.613281 99.902344 28.691406 99.902344 44.472656 99.960938 C 62.070312 100.019531 61.953125 100.019531 64.550781 98.75 C 65.3125 98.378906 66.308594 97.734375 66.796875 97.324219 C 67.539062 96.699219 90.019531 72.714844 93.203125 69.179688 C 93.808594 68.496094 94.628906 67.285156 95 66.503906 C 96.210938 64.082031 96.289062 63.398438 96.289062 54.042969 L 96.289062 45.664062 L 95.722656 45.097656 C 94.960938 44.355469 93.828125 44.316406 93.027344 45 L 92.480469 45.46875 L 92.382812 54.335938 L 92.285156 63.183594 L 91.679688 64.453125 C 90.976562 65.9375 91.894531 64.921875 76.347656 81.5625 C 63.300781 95.527344 63.496094 95.351562 60.9375 95.898438 C 60.15625 96.054688 55.664062 96.09375 44.414062 96.054688 L 28.984375 95.996094 L 27.5 95.253906 C 24.746094 93.90625 25.097656 94.472656 16.230469 76.152344 C 11.894531 67.1875 8.164062 59.335938 7.96875 58.691406 C 7.207031 56.386719 7.148438 56.601562 14.042969 34.804688 C 17.480469 23.90625 20.507812 14.648438 20.761719 14.199219 C 21.542969 12.890625 22.851562 11.71875 24.355469 10.996094 C 25.976562 10.214844 25.273438 10.273438 41.015625 9.667969 C 46.152344 9.472656 49.84375 9.238281 50.683594 9.0625 C 52.558594 8.691406 54.511719 7.714844 56.25 6.269531 C 57.890625 4.941406 58.90625 4.394531 60.390625 4.082031 C 62.617188 3.59375 62.910156 3.691406 75.878906 8.867188 C 82.5 11.523438 88.242188 13.886719 88.632812 14.140625 C 90.039062 15.039062 91.230469 16.445312 91.855469 18.007812 C 92.246094 18.945312 92.285156 19.511719 92.382812 24.375 L 92.480469 29.726562 L 93.027344 30.195312 C 93.828125 30.878906 94.960938 30.839844 95.722656 30.097656 L 96.289062 29.53125 L 96.289062 24.570312 C 96.289062 21.074219 96.210938 19.257812 96.015625 18.320312 C 95.3125 15.078125 92.910156 11.894531 90.058594 10.449219 C 88.984375 9.921875 67.695312 1.328125 65.722656 0.644531 C 63.789062 -0.0390625 60.957031 -0.136719 59.023438 0.390625 Z M 59.023438 0.390625 "/>
<path style=" stroke:none;fill-rule:nonzero;fill:rgb(40%,20%,27.45098%);fill-opacity:1;" d="M 49.6875 16.25 C 48.222656 17.636719 47.109375 19.140625 46.054688 21.210938 C 45.175781 22.910156 44.140625 25.820312 44.140625 26.5625 C 44.140625 26.777344 43.554688 27.558594 42.832031 28.300781 C 40.3125 30.839844 39.257812 33.242188 39.101562 36.640625 C 39.003906 39.296875 39.199219 40.585938 40.332031 44.179688 C 40.820312 45.703125 41.210938 47.03125 41.210938 47.148438 C 41.210938 47.265625 40.957031 46.914062 40.644531 46.347656 C 39.472656 44.199219 37.460938 42.363281 35.253906 41.386719 C 34.394531 40.996094 34.277344 40.859375 33.476562 39.199219 C 32.441406 36.992188 31.699219 34.160156 31.484375 31.484375 C 31.289062 29.277344 30.957031 28.652344 29.882812 28.417969 C 29.101562 28.242188 28.417969 28.59375 27.109375 29.84375 C 22.851562 33.886719 21.035156 39.921875 22.34375 45.566406 C 22.578125 46.5625 22.578125 46.855469 22.304688 47.8125 C 21.875 49.355469 21.894531 52.480469 22.34375 53.984375 C 23.046875 56.328125 23.925781 57.734375 26.191406 60.078125 C 28.652344 62.617188 29.160156 63.515625 29.609375 66.152344 C 30.546875 71.71875 33.183594 75.585938 37.558594 77.851562 C 39.511719 78.867188 40.742188 79.960938 42.285156 82.128906 C 44.0625 84.609375 46.738281 86.328125 49.667969 86.835938 C 54.082031 87.636719 58.515625 85.585938 61.289062 81.484375 C 62.363281 79.941406 63.710938 78.769531 65.449219 77.890625 C 68.320312 76.445312 70.429688 74.257812 71.894531 71.191406 C 72.617188 69.726562 73.105469 68.027344 73.613281 65.332031 C 73.964844 63.398438 74.6875 62.1875 76.601562 60.351562 C 79.707031 57.363281 80.878906 54.980469 81.015625 51.289062 C 81.074219 49.6875 81.015625 48.867188 80.761719 47.929688 C 80.449219 46.796875 80.449219 46.601562 80.742188 45.332031 C 81.152344 43.535156 81.152344 40.058594 80.742188 38.222656 C 80.019531 35.058594 78.457031 32.304688 76.054688 29.960938 C 74.511719 28.4375 73.945312 28.183594 72.929688 28.515625 C 72.03125 28.808594 71.757812 29.433594 71.601562 31.445312 C 71.40625 33.847656 70.605469 36.933594 69.589844 39.082031 L 68.710938 40.976562 L 67.207031 41.71875 C 65.46875 42.578125 63.476562 44.433594 62.539062 46.09375 C 62.1875 46.679688 61.914062 47.050781 61.914062 46.914062 C 61.914062 46.777344 62.285156 45.546875 62.714844 44.199219 C 63.164062 42.832031 63.632812 41.054688 63.789062 40.234375 C 64.609375 35.664062 63.476562 31.738281 60.429688 28.515625 C 59.179688 27.1875 59.023438 26.933594 58.710938 25.683594 C 58.007812 22.832031 56.71875 20.234375 54.84375 17.851562 C 53.320312 15.898438 52.480469 15.234375 51.542969 15.234375 C 50.859375 15.234375 50.605469 15.371094 49.6875 16.25 Z M 52.714844 21.542969 C 53.144531 22.207031 53.710938 23.242188 53.964844 23.828125 L 54.453125 24.902344 L 51.542969 24.902344 C 49.941406 24.902344 48.632812 24.863281 48.632812 24.804688 C 48.632812 24.511719 50.292969 21.484375 50.839844 20.761719 C 51.5625 19.824219 51.601562 19.84375 52.714844 21.542969 Z M 55.097656 29.453125 C 57.519531 30.605469 59.238281 32.636719 59.863281 35.058594 C 60.410156 37.226562 60.15625 39.609375 58.984375 43.085938 C 57.539062 47.324219 56.933594 50.742188 56.757812 55.664062 C 56.621094 59.277344 56.757812 59.882812 57.851562 60.410156 C 58.90625 60.917969 59.6875 60.625 60.9375 59.21875 C 63.046875 56.855469 63.964844 55.019531 64.648438 51.757812 C 65.175781 49.238281 65.820312 47.871094 67.089844 46.582031 C 68.398438 45.234375 69.648438 44.648438 71.40625 44.570312 C 73.183594 44.472656 74.492188 45 75.585938 46.230469 C 76.796875 47.597656 77.207031 48.945312 77.109375 51.191406 C 77.011719 53.867188 76.386719 55.078125 73.75 57.695312 C 71.09375 60.351562 70.078125 62.265625 69.511719 65.820312 C 68.886719 69.824219 66.757812 72.851562 63.359375 74.570312 C 61.191406 75.683594 59.746094 76.894531 58.496094 78.691406 C 57.226562 80.507812 55.859375 81.816406 54.570312 82.402344 C 51.132812 84.023438 47.5 82.851562 45 79.277344 C 43.535156 77.207031 41.777344 75.644531 39.609375 74.492188 C 36.308594 72.753906 34.335938 70.058594 33.671875 66.40625 C 32.871094 62.050781 32.03125 60.390625 29.140625 57.5 C 27.011719 55.351562 26.347656 54.238281 25.957031 52.089844 C 25.410156 49.101562 26.757812 46.09375 29.199219 44.921875 C 29.765625 44.648438 30.410156 44.53125 31.367188 44.53125 C 33.222656 44.53125 34.667969 45.234375 36.152344 46.816406 C 37.421875 48.203125 37.910156 49.316406 38.457031 52.03125 C 39.042969 54.980469 40.488281 57.675781 42.5 59.609375 C 43.847656 60.878906 44.921875 60.976562 45.820312 59.902344 L 46.328125 59.296875 L 46.230469 55.371094 C 46.113281 50.9375 45.742188 48.476562 44.628906 44.882812 C 43.144531 40.15625 42.929688 39.121094 43.007812 37.011719 C 43.066406 35.3125 43.164062 34.882812 43.691406 33.75 C 44.746094 31.523438 46.542969 29.902344 48.925781 29.042969 C 49.667969 28.789062 50.351562 28.710938 51.855469 28.769531 C 53.574219 28.828125 53.964844 28.90625 55.097656 29.453125 Z M 28.398438 36.621094 C 28.59375 37.363281 28.964844 38.535156 29.21875 39.199219 C 29.726562 40.488281 29.707031 40.820312 29.101562 40.820312 C 28.90625 40.820312 28.066406 41.152344 27.246094 41.582031 L 25.722656 42.34375 L 25.859375 40.898438 C 25.9375 40.117188 26.132812 39.003906 26.289062 38.4375 C 26.71875 36.992188 27.734375 34.882812 27.929688 35.078125 C 28.007812 35.175781 28.222656 35.859375 28.398438 36.621094 Z M 76.035156 36.484375 C 76.738281 38.046875 77.148438 39.726562 77.148438 41.054688 C 77.148438 41.679688 77.109375 42.1875 77.070312 42.1875 C 77.011719 42.1875 76.660156 41.992188 76.269531 41.777344 C 75.878906 41.542969 75.078125 41.210938 74.453125 41.015625 C 73.222656 40.625 73.242188 40.703125 73.90625 38.964844 C 74.160156 38.320312 74.53125 37.167969 74.726562 36.386719 C 75.136719 34.765625 75.273438 34.765625 76.035156 36.484375 Z M 76.035156 36.484375 "/>
<path style=" stroke:none;fill-rule:nonzero;fill:rgb(40%,20%,27.45098%);fill-opacity:1;" d="M 93.027344 36.210938 C 92.578125 36.601562 92.480469 36.835938 92.480469 37.597656 C 92.480469 38.359375 92.578125 38.59375 93.027344 38.984375 C 94.277344 40.058594 96.289062 39.199219 96.289062 37.597656 C 96.289062 35.996094 94.277344 35.136719 93.027344 36.210938 Z M 93.027344 36.210938 "/>
</g>
</svg>
