<?xml version="1.0" encoding="UTF-8"?>
<svg xmlns="http://www.w3.org/2000/svg" xmlns:xlink="http://www.w3.org/1999/xlink" width="120px" height="100px" viewBox="0 0 120 100" version="1.1">
<g id="surface1">
<path style=" stroke:none;fill-rule:nonzero;fill:rgb(40%,20%,27.45098%);fill-opacity:1;" d="M 91.101562 25.929688 C 90.699219 26.015625 89.464844 26.652344 89.316406 26.847656 C 89.25 26.917969 88.433594 27.042969 87.484375 27.097656 C 85.234375 27.25 84.300781 27.445312 83.101562 27.972656 C 81.785156 28.542969 80.484375 29.554688 79.382812 30.859375 C 78.285156 32.179688 76.683594 33.417969 75.398438 33.957031 C 73.964844 34.570312 72.785156 34.582031 69.898438 34.042969 C 64.765625 33.082031 60.964844 33.265625 55.183594 34.734375 C 53.949219 35.042969 52.464844 35.070312 51.082031 34.792969 C 47.917969 34.152344 44.714844 34.847656 39.5 37.292969 C 37.285156 38.332031 34.234375 39.292969 25.582031 41.695312 C 21.464844 42.832031 17.632812 43.945312 17.082031 44.140625 C 16.101562 44.5 14.101562 45.734375 13.382812 46.445312 C 11.683594 48.082031 11.417969 49.972656 12.582031 52.015625 C 14 54.5 16.601562 56.179688 20.582031 57.195312 C 23.234375 57.875 25.515625 58.320312 25.449219 58.152344 C 25.417969 58.070312 24.082031 57.597656 22.484375 57.082031 C 20.882812 56.582031 19.132812 55.972656 18.566406 55.722656 C 17.464844 55.265625 15.667969 53.875 14.917969 52.945312 C 14.285156 52.152344 14.398438 51.359375 15.199219 50.792969 C 15.984375 50.25 16.535156 50.152344 20 49.984375 C 23.800781 49.804688 34.917969 50.027344 35.832031 50.292969 C 36.148438 50.390625 36.933594 50.765625 37.582031 51.125 C 38.882812 51.859375 40.484375 52.359375 41.515625 52.359375 C 43.148438 52.359375 45.535156 53.167969 46.882812 54.179688 C 47.734375 54.804688 47.699219 54.847656 45.75 55.734375 C 45.015625 56.070312 44.117188 56.484375 43.75 56.667969 C 42.148438 57.429688 40.816406 57.917969 39.332031 58.265625 C 37.449219 58.695312 37.132812 58.847656 36.550781 59.625 C 36.316406 59.945312 35.714844 60.707031 35.25 61.320312 C 34.25 62.597656 34.035156 63.042969 34.332031 63.195312 C 34.484375 63.265625 34.398438 63.457031 34.050781 63.890625 C 32.75 65.515625 32.699219 65.625 32.683594 66.277344 C 32.667969 67 33.132812 68.070312 34.398438 70.125 L 35.199219 71.429688 L 37.800781 71.320312 C 39.234375 71.265625 40.816406 71.207031 41.300781 71.207031 C 42.082031 71.207031 42.167969 71.167969 42.167969 70.890625 C 42.167969 70.542969 40.234375 69.25 39.449219 69.097656 C 38.75 68.945312 38.617188 68.5 38.734375 66.667969 C 38.832031 64.890625 39.167969 63.402344 39.632812 62.652344 C 40.117188 61.859375 41.167969 61.5 43.183594 61.417969 C 45.082031 61.347656 45.117188 61.359375 44.398438 62.457031 C 43.867188 63.292969 43.933594 64.015625 44.648438 65.390625 C 45.882812 67.707031 46.25 69.667969 45.75 71.054688 C 45.617188 71.429688 45.5 71.890625 45.5 72.082031 C 45.5 73.082031 47.082031 74.027344 48.75 74.027344 C 49.648438 74.027344 49.683594 74.015625 49.949219 73.527344 C 50.234375 73.042969 50.25 73.042969 51 73.125 C 51.417969 73.167969 52.199219 73.304688 52.75 73.429688 C 53.449219 73.570312 54.082031 73.609375 54.832031 73.542969 C 55.433594 73.484375 56.234375 73.445312 56.632812 73.429688 C 57.316406 73.417969 57.332031 73.390625 57.332031 72.957031 C 57.332031 72.597656 57.417969 72.484375 57.75 72.417969 C 57.984375 72.375 58.433594 72.375 58.75 72.417969 C 59.417969 72.527344 59.433594 72.5 59.082031 71.945312 C 58.683594 71.304688 57.082031 70.765625 54.582031 70.402344 C 52.214844 70.070312 51.183594 69.582031 50.167969 68.332031 C 48.933594 66.832031 48.285156 64.902344 48.683594 63.929688 C 49.035156 63.042969 50.351562 61.390625 51.015625 60.972656 C 51.382812 60.765625 52.050781 60.472656 52.535156 60.320312 C 53.75 59.957031 54.601562 59.125 54.699219 58.167969 C 54.800781 57.375 56.433594 54.542969 57.132812 53.945312 C 57.367188 53.75 57.898438 53.554688 58.464844 53.457031 C 60.667969 53.082031 62.601562 52.609375 64.367188 52.015625 C 68.101562 50.734375 68.117188 50.734375 68.714844 51.027344 C 69.015625 51.179688 69.683594 51.5 70.214844 51.75 C 70.75 52.015625 71.484375 52.457031 71.832031 52.734375 C 72.464844 53.25 73.917969 53.859375 74.117188 53.707031 C 74.382812 53.484375 73.417969 52.347656 72.433594 51.695312 C 72.167969 51.527344 72 51.347656 72.050781 51.292969 C 72.117188 51.25 72.535156 51.179688 73 51.140625 C 73.449219 51.109375 73.832031 51.042969 73.832031 50.984375 C 73.832031 50.945312 73.484375 50.722656 73.050781 50.5 C 72.285156 50.109375 72.265625 50.082031 72.667969 49.984375 C 73.515625 49.777344 73.832031 49.859375 74.550781 50.429688 C 75.832031 51.484375 77.566406 51.929688 80.316406 51.945312 L 81.566406 51.945312 L 82.351562 52.640625 C 82.785156 53.015625 83.183594 53.332031 83.234375 53.332031 C 83.285156 53.332031 83.332031 53.042969 83.332031 52.679688 C 83.332031 52.207031 83.214844 51.917969 82.898438 51.570312 L 82.484375 51.109375 L 82.898438 51.109375 C 83.464844 51.109375 83.582031 50.890625 83.132812 50.640625 C 82.648438 50.359375 81.714844 50.359375 80.898438 50.640625 C 80 50.945312 79.132812 50.820312 77.433594 50.109375 C 76.101562 49.570312 76 49.484375 76 49.097656 C 76 48.859375 76.167969 48.457031 76.382812 48.195312 C 76.601562 47.929688 77.082031 47.234375 77.484375 46.667969 C 78.265625 45.5 78.25 45.5 81 44.722656 C 84.382812 43.765625 87.632812 42.125 88.714844 40.820312 L 88.984375 40.515625 L 90.785156 40.945312 C 91.765625 41.195312 93.132812 41.484375 93.800781 41.597656 C 94.484375 41.707031 95.75 42.070312 96.632812 42.375 C 99.917969 43.527344 100.332031 43.640625 101.449219 43.582031 C 102.285156 43.542969 102.632812 43.445312 103.199219 43.097656 C 103.601562 42.859375 104.035156 42.515625 104.167969 42.304688 C 104.417969 41.957031 104.398438 41.929688 103.648438 41.320312 C 103.066406 40.820312 102.75 40.667969 102.234375 40.640625 C 101.882812 40.609375 101.566406 40.570312 101.550781 40.554688 C 101.515625 40.542969 101.398438 40.515625 101.300781 40.5 C 101.148438 40.484375 101.101562 40.292969 101.132812 39.890625 C 101.199219 39.292969 101.066406 39.167969 100.699219 39.472656 C 100.550781 39.597656 100.5 39.582031 100.5 39.402344 C 100.5 39.109375 100.265625 39.097656 99.984375 39.390625 C 99.800781 39.582031 99.765625 39.582031 99.632812 39.375 C 99.550781 39.265625 99.417969 39.195312 99.316406 39.234375 C 99.234375 39.292969 99.167969 39.222656 99.167969 39.109375 C 99.167969 38.875 99.550781 38.820312 100.699219 38.875 C 101.035156 38.902344 101.464844 38.832031 101.683594 38.75 C 102.035156 38.582031 102 38.570312 101.148438 38.179688 C 100.667969 37.957031 100.148438 37.695312 100.015625 37.582031 C 99.632812 37.304688 98.5 36.847656 97.917969 36.75 L 97.398438 36.652344 L 97.464844 35.652344 C 97.535156 34.554688 97.867188 33.609375 98.332031 33.265625 C 98.617188 33.042969 98.648438 33.054688 98.832031 33.332031 C 98.984375 33.570312 99.066406 33.597656 99.265625 33.457031 C 99.449219 33.332031 99.550781 33.332031 99.734375 33.457031 C 99.898438 33.570312 100 33.582031 100.082031 33.472656 C 100.25 33.25 100.433594 33.304688 100.667969 33.695312 C 100.882812 34.027344 100.917969 34.027344 101.117188 33.804688 C 101.316406 33.582031 101.351562 33.597656 101.515625 34 C 101.75 34.554688 101.851562 34.554688 102.214844 34.027344 C 102.582031 33.515625 102.714844 33.5 103 33.984375 L 103.199219 34.375 L 103.367188 34.027344 C 103.464844 33.832031 103.582031 33.597656 103.648438 33.484375 C 103.816406 33.207031 104.800781 33.179688 105.101562 33.445312 C 105.332031 33.625 105.382812 33.625 105.515625 33.457031 C 105.601562 33.347656 105.667969 33.207031 105.667969 33.140625 C 105.667969 33.082031 105.851562 33.070312 106.082031 33.109375 C 106.449219 33.195312 106.5 33.152344 106.5 32.792969 C 106.5 32.570312 106.601562 32.359375 106.75 32.320312 C 107.035156 32.222656 107.734375 31.320312 107.882812 30.847656 C 108 30.484375 107.550781 29.472656 106.882812 28.570312 C 106.117188 27.554688 104.515625 27.015625 101.25 26.707031 C 100.117188 26.597656 99.617188 26.640625 98.25 26.929688 C 96.566406 27.304688 94.148438 27 92.734375 26.25 C 91.949219 25.832031 91.734375 25.792969 91.101562 25.929688 Z M 71 50.417969 C 70.867188 50.484375 70.632812 50.554688 70.5 50.554688 C 70.285156 50.554688 70.285156 50.542969 70.5 50.417969 C 70.632812 50.347656 70.867188 50.277344 71 50.277344 C 71.214844 50.277344 71.214844 50.292969 71 50.417969 Z M 71 50.417969 "/>
</g>
</svg>
