<svg xmlns="http://www.w3.org/2000/svg" version="1.0" width="800.000000pt" height="667.000000pt" viewBox="0 0 800.000000 667.000000" preserveAspectRatio="xMidYMid meet">

<g transform="translate(0.000000,667.000000) scale(0.100000,-0.100000)" fill="#663346" stroke="none">
<path d="M3921 5022 c-18 -33 -41 -106 -41 -130 0 -13 -4 -31 -10 -41 -5 -10 -14 -43 -19 -72 -5 -30 -17 -96 -26 -147 -9 -52 -14 -96 -11 -99 3 -4 6 3 6 15 0 12 4 30 10 40 9 17 74 212 104 313 27 92 17 178 -13 121z"/>
<path d="M3517 5003 c-3 -10 -9 -33 -12 -52 -9 -44 5 -421 15 -421 24 0 36 479 13 487 -6 2 -14 -4 -16 -14z"/>
<path d="M4286 4957 c-20 -35 -63 -131 -97 -213 -33 -82 -65 -157 -70 -166 -5 -10 -9 -21 -9 -25 1 -9 46 60 61 92 5 11 15 29 21 39 74 115 158 282 158 316 0 39 -29 19 -64 -43z"/>
<path d="M4807 4968 c-29 -29 -86 -90 -127 -136 -41 -46 -86 -96 -100 -112 -23 -26 -102 -115 -143 -164 -10 -11 -27 -31 -38 -44 -58 -68 31 4 231 187 213 195 270 258 270 298 0 39 -36 27 -93 -29z"/>
<path d="M3130 4866 c0 -41 18 -137 40 -211 5 -16 14 -50 20 -75 7 -25 18 -63 25 -85 7 -22 16 -53 20 -69 11 -49 13 -24 3 44 -5 36 -13 99 -18 140 -8 67 -25 155 -46 245 -15 66 -44 73 -44 11z"/>
<path d="M2740 4767 c0 -46 52 -170 159 -374 62 -121 62 -109 -3 77 -21 58 -41 119 -47 135 -16 52 -83 179 -96 183 -8 2 -13 -6 -13 -21z"/>
<path d="M5115 4725 c-38 -13 -115 -87 -115 -111 0 -14 -30 -74 -37 -74 -3 0 -3 25 1 56 l6 55 -57 -7 c-125 -15 -185 -51 -353 -214 -63 -61 -137 -131 -165 -155 -56 -48 -154 -109 -163 -100 -5 5 32 49 94 110 l21 21 -51 12 c-28 7 -85 25 -126 42 -115 45 -213 41 -450 -20 -119 -31 -227 -65 -365 -115 -55 -20 -116 -43 -135 -50 -79 -28 -259 -120 -320 -163 -97 -67 -153 -125 -363 -372 -287 -337 -456 -493 -631 -582 -224 -114 -407 -58 -504 155 -12 26 -25 47 -28 47 -14 0 9 -180 32 -249 31 -90 61 -139 125 -203 54 -54 158 -108 244 -126 28 -7 71 -16 97 -22 132 -29 333 -2 553 74 128 44 335 143 335 160 -1 6 -14 34 -30 61 -37 63 -60 113 -60 132 0 7 -6 16 -14 19 -8 3 -12 12 -9 19 2 8 -2 29 -11 46 -25 49 -23 286 3 359 22 63 48 83 37 29 -15 -70 -18 -214 -6 -269 13 -61 38 -154 51 -185 31 -79 66 -145 107 -203 l24 -33 -61 -58 c-66 -63 -68 -69 -62 -179 3 -49 -1 -57 -46 -120 -78 -106 -76 -101 -84 -362 -3 -129 -10 -243 -14 -253 -4 -10 -26 -27 -49 -39 -76 -38 -86 -53 -86 -129 0 -37 3 -70 8 -72 4 -2 30 8 57 22 48 25 50 28 55 75 5 46 6 48 20 31 9 -11 15 -37 14 -67 0 -26 2 -48 5 -48 3 0 24 7 47 16 42 16 43 16 77 -10 45 -34 104 -35 139 -3 14 13 27 29 30 37 3 11 10 10 38 -3 54 -27 60 -23 53 31 -6 54 12 106 28 81 5 -8 9 -29 9 -48 0 -44 23 -60 84 -61 l49 0 -7 47 c-3 26 -13 57 -21 69 -17 27 -92 64 -128 64 -21 0 -28 6 -33 28 -3 15 -16 56 -28 92 -56 160 -73 261 -56 336 18 81 84 154 199 221 79 46 145 108 166 159 11 26 15 72 15 165 0 71 4 137 9 147 5 9 17 42 26 72 26 85 125 210 125 158 0 -7 -9 -26 -20 -43 -49 -72 -80 -172 -80 -261 l0 -61 43 -12 c23 -7 56 -17 73 -22 44 -13 249 -11 298 3 79 23 146 76 189 151 21 37 22 37 67 31 25 -4 47 -8 50 -11 7 -7 -24 -23 -45 -23 -14 0 -30 -16 -49 -47 -37 -64 -166 -163 -211 -163 -25 0 -65 -23 -65 -37 0 -8 9 -32 21 -55 24 -46 49 -124 49 -152 0 -10 -16 -50 -35 -87 -37 -74 -42 -98 -23 -132 11 -21 87 -126 98 -137 3 -3 28 -41 56 -85 49 -78 73 -129 91 -189 12 -41 30 -43 38 -7 6 28 2 65 -11 114 -9 30 14 19 41 -20 34 -51 34 -111 0 -143 -15 -14 -25 -35 -25 -52 0 -22 8 -32 43 -49 61 -32 133 -49 206 -49 l64 0 -22 24 c-16 17 -22 33 -19 57 4 43 26 50 30 8 2 -18 10 -36 18 -40 40 -22 104 -48 107 -45 3 2 1 25 -3 52 -5 33 -17 58 -42 86 -41 45 -38 56 9 30 34 -19 78 -90 79 -128 0 -26 18 -34 70 -34 64 0 73 7 50 40 -12 17 -20 44 -20 69 0 47 16 55 26 14 10 -42 33 -63 68 -63 17 0 42 -7 54 -16 21 -15 22 -14 22 16 0 17 -11 47 -24 68 -20 33 -35 42 -104 65 -53 18 -100 27 -142 27 -163 0 -300 95 -386 269 -75 151 -81 264 -27 461 30 108 33 120 44 157 26 82 34 148 24 178 -16 47 -24 55 -55 55 -16 0 -32 4 -35 10 -3 5 -16 10 -28 10 -28 1 -55 22 -73 56 -22 41 -18 182 5 237 24 56 46 73 36 28 -3 -17 -7 -76 -8 -131 -1 -90 1 -102 21 -120 12 -11 26 -20 32 -20 6 0 19 -4 30 -10 11 -5 29 -14 40 -20 11 -5 26 -10 33 -10 7 0 23 -11 36 -24 19 -20 21 -32 19 -92 -3 -64 -2 -69 19 -72 12 -2 33 4 47 14 22 14 26 24 26 68 0 55 -28 115 -55 117 -25 2 -29 4 -58 23 -15 10 -32 27 -37 36 -12 23 4 78 27 96 40 32 64 46 69 41 6 -6 -13 -43 -33 -65 -27 -29 -4 -81 35 -82 25 0 72 -41 86 -75 12 -28 18 -33 38 -28 44 11 141 125 184 214 22 46 50 104 62 129 l22 45 -6 -55 c-4 -30 -13 -67 -20 -82 -8 -15 -11 -33 -8 -41 3 -8 -2 -17 -10 -20 -9 -4 -16 -16 -16 -27 0 -11 -4 -20 -9 -20 -23 0 -21 -41 2 -72 14 -18 27 -40 29 -49 5 -23 -24 -89 -39 -89 -21 0 -15 -38 7 -45 34 -11 79 5 101 36 22 31 19 50 -19 138 -20 47 -9 84 41 144 62 74 107 167 107 222 0 21 5 25 33 25 17 0 49 3 69 6 l38 7 -33 46 c-72 103 -122 237 -146 399 -38 248 41 421 191 422 44 0 75 -16 46 -24 -85 -24 -107 -34 -133 -61 -19 -20 -34 -50 -42 -86 -17 -73 -16 -209 2 -289 24 -108 35 -150 44 -168 5 -9 21 -43 36 -75 35 -72 117 -149 183 -171 36 -12 80 -16 173 -14 122 2 126 2 254 -41 148 -49 227 -60 286 -41 68 23 154 140 103 140 -12 0 -15 6 -10 25 4 14 2 25 -3 25 -5 0 -11 -9 -14 -20 -3 -12 -14 -20 -25 -20 -40 0 -52 11 -53 49 0 36 0 36 -16 14 -20 -29 -30 -29 -75 2 -21 14 -52 25 -70 25 -31 1 -68 19 -68 34 0 3 21 6 48 6 52 0 136 34 166 69 11 11 15 21 10 21 -134 -1 -284 11 -311 25 -52 26 -49 35 11 35 l56 0 0 47 c0 73 34 162 81 214 24 26 29 27 63 17 23 -7 36 -17 36 -29 0 -9 3 -26 7 -36 6 -14 9 -10 13 17 5 34 7 35 51 38 43 3 48 1 57 -25 l10 -28 1 26 c1 21 8 28 38 37 27 8 40 8 50 0 9 -7 13 -7 13 1 0 12 58 51 76 51 6 0 16 -10 22 -22 10 -21 10 -20 6 8 -4 22 1 41 20 69 29 42 32 55 14 73 -24 24 -86 14 -151 -26 -192 -116 -330 -145 -486 -102 l-73 21 -36 -32 c-48 -42 -91 -59 -153 -59 -52 0 -209 46 -209 61 0 16 16 16 65 3 28 -7 84 -13 126 -14 68 0 79 3 124 33 88 58 88 58 133 43 85 -30 148 -36 230 -22 89 16 143 38 263 107 92 52 154 64 179 34 23 -27 30 -16 30 45 0 114 -65 185 -215 235 -69 23 -96 27 -190 26 -60 0 -126 -4 -145 -9 -29 -6 -41 -4 -69 15 -55 37 -143 25 -121 -17 19 -35 10 -32 -44 18 -70 63 -121 75 -201 47z m144 -71 c18 -4 46 -20 62 -37 32 -32 29 -31 156 -11 41 6 103 -9 103 -26 0 -10 -52 -20 -106 -20 -24 0 -68 -11 -99 -24 -50 -23 -55 -23 -64 -8 -8 14 -13 15 -30 5 -12 -7 -31 -13 -43 -13 -22 1 -21 2 8 29 40 36 31 53 -27 49 -84 -6 -110 -98 -44 -156 22 -19 24 -23 10 -28 -19 -7 -103 0 -113 10 -3 4 0 11 7 15 9 6 14 31 15 74 1 55 5 70 26 92 24 26 73 54 96 55 6 0 26 -3 43 -6z m646 -110 c14 -15 25 -35 25 -46 0 -16 -5 -18 -37 -12 -44 8 -73 30 -73 55 0 36 53 38 85 3z m-1327 -257 c6 -7 9 -23 5 -35 l-6 -23 36 21 c22 13 44 19 56 15 17 -5 18 -13 14 -68 -6 -67 -20 -91 -46 -81 -11 4 -17 18 -17 40 l0 34 -40 -26 c-58 -39 -71 -29 -64 48 4 35 11 69 17 76 12 16 32 15 45 -1z m-536 -39 c8 -18 21 -49 28 -68 6 -19 16 -44 20 -55 61 -158 75 -225 46 -225 -18 0 -32 18 -40 55 -10 42 -24 55 -56 55 -30 0 -40 -15 -40 -60 0 -37 -24 -57 -46 -39 -12 10 -14 27 -9 88 8 109 26 232 36 259 13 33 44 28 61 -10z m-236 -48 c7 -30 17 -71 23 -90 55 -193 57 -207 32 -215 -41 -13 -61 3 -62 48 0 23 -8 66 -18 96 l-17 54 -12 -96 c-14 -112 -19 -127 -41 -127 -25 0 -37 12 -45 45 -4 17 -14 59 -22 95 -52 224 -51 216 -19 224 39 10 55 -9 56 -63 0 -25 4 -55 8 -65 7 -18 9 -16 19 14 7 18 12 48 12 66 0 38 31 77 58 72 11 -2 20 -21 28 -58z m-327 -53 c5 -12 18 -43 29 -67 40 -88 93 -243 88 -257 -3 -7 -15 -13 -26 -13 -24 0 -61 75 -112 225 -11 33 -24 64 -29 70 -11 11 -12 49 -2 58 14 15 44 6 52 -16z m1126 -42 c21 -4 25 -11 25 -38 0 -18 -4 -37 -9 -42 -5 -6 -11 -23 -13 -40 -3 -29 -4 -30 -53 -27 -50 3 -75 15 -61 29 3 4 22 6 41 5 35 -3 48 14 20 24 -21 8 -19 21 5 29 25 8 27 35 3 35 -26 0 -47 16 -39 29 4 6 18 9 32 6 13 -3 35 -7 49 -10z m322 -52 c10 -26 108 -147 139 -172 21 -17 39 -20 97 -19 40 1 87 -2 106 -7 34 -7 34 -7 28 24 -10 48 3 145 23 171 17 22 17 21 13 -51 -3 -49 1 -94 11 -133 9 -32 17 -60 18 -61 2 -1 47 -37 102 -81 54 -43 107 -85 117 -93 11 -7 19 -17 19 -22 0 -18 -30 -8 -72 24 -68 52 -189 132 -235 156 -33 16 -60 21 -123 21 -90 0 -112 7 -154 54 -34 37 -96 131 -96 146 0 5 -4 10 -10 10 -5 0 -10 11 -10 25 0 29 17 33 27 8z m-1630 -29 c15 -20 58 -73 96 -118 78 -94 88 -119 60 -148 -23 -23 -19 -27 -89 71 -26 36 -51 70 -56 75 -4 6 -19 23 -31 38 l-23 28 4 -42 c5 -48 -16 -71 -55 -62 -30 8 -29 -7 1 -37 36 -37 96 -136 96 -159 0 -11 -7 -23 -14 -26 -15 -6 -65 24 -66 38 0 11 -123 169 -149 192 -28 26 -26 50 6 76 27 21 50 22 97 4 16 -6 17 -3 12 23 -5 22 -1 36 14 56 30 38 63 35 97 -9z m1318 -119 c54 -53 18 -139 -55 -133 -28 2 -36 8 -38 27 -3 21 0 23 21 19 40 -8 48 3 36 45 -8 30 -15 37 -34 37 -29 0 -34 16 -7 23 37 10 54 6 77 -18z m-689 -77 c4 -6 -1 -17 -11 -24 -15 -11 -17 -23 -11 -78 4 -44 3 -67 -5 -72 -18 -11 -29 17 -29 79 0 50 -2 57 -19 57 -23 0 -33 11 -23 27 13 21 87 30 98 11z m1004 -34 c5 -37 7 -39 36 -36 22 2 33 -2 38 -14 5 -14 9 -13 27 10 22 28 49 35 49 11 0 -19 -51 -92 -69 -100 -8 -3 -22 1 -31 10 -9 9 -24 13 -32 10 -8 -3 -21 2 -30 12 -16 19 -33 125 -21 137 14 14 28 -2 33 -40z m-1121 -26 c26 -110 26 -116 -2 -123 -44 -11 -65 14 -26 31 20 9 20 11 5 26 -9 9 -16 33 -16 52 0 29 -4 36 -20 36 -20 0 -26 11 -13 23 3 4 18 7 33 7 23 0 27 -6 39 -52z m219 -41 c3 -89 -8 -113 -29 -61 -9 25 -11 26 -28 10 -9 -9 -21 -16 -25 -16 -10 0 3 72 15 85 5 5 9 16 9 24 0 19 31 52 44 48 7 -2 12 -40 14 -90z m-372 29 c3 -13 4 -39 2 -57 -3 -30 -1 -34 20 -31 27 4 30 -22 6 -49 -13 -14 -21 -16 -35 -8 -14 7 -19 6 -19 -4 0 -8 -9 -22 -20 -32 -16 -14 -23 -16 -32 -7 -17 17 -28 15 -28 -6 0 -10 -3 -21 -6 -25 -8 -7 -74 61 -75 77 0 6 -4 1 -9 -11 -5 -13 -15 -23 -21 -23 -6 0 0 -15 15 -34 14 -19 26 -42 26 -50 0 -19 -20 -21 -40 -3 -13 10 -13 10 -2 -3 16 -19 15 -38 -2 -56 -22 -22 -46 -17 -46 9 0 12 -12 33 -25 46 -14 13 -25 27 -25 32 0 5 -10 8 -22 6 -30 -3 -36 28 -7 43 19 11 26 7 64 -30 52 -51 69 -37 20 16 -40 45 -41 68 -2 72 18 2 27 9 27 22 0 10 8 21 18 25 12 5 28 -6 57 -39 22 -26 43 -46 47 -46 3 0 -5 21 -18 46 -31 58 -29 89 6 89 19 0 33 -12 58 -49 l32 -48 0 51 c0 28 -4 51 -10 51 -11 0 -14 33 -3 43 15 16 43 6 49 -17z m524 -10 c0 -7 -11 -34 -25 -60 -14 -26 -25 -53 -25 -60 0 -16 -30 -30 -41 -19 -11 11 61 153 78 153 7 0 13 -6 13 -14z m-1233 -42 c38 -14 88 -32 113 -40 64 -22 154 -64 162 -77 4 -6 4 -15 2 -19 -7 -11 -61 -10 -68 1 -7 11 -52 20 -64 12 -5 -3 -14 -15 -19 -26 -9 -16 -6 -25 18 -53 31 -35 35 -65 8 -70 -14 -2 -158 136 -223 214 -29 35 -35 84 -11 84 8 0 45 -12 82 -26z m1648 10 c23 -15 25 -15 25 0 0 9 8 16 20 16 23 0 33 -31 34 -100 1 -42 -1 -45 -26 -48 -23 -3 -28 1 -28 19 l0 22 -23 -21 c-24 -22 -57 -30 -57 -13 0 5 12 24 26 41 l27 31 -22 15 c-21 15 -29 54 -11 54 6 0 22 -7 35 -16z m638 -29 c19 -94 20 -105 5 -105 -8 0 -20 11 -26 25 -12 27 -40 33 -60 13 -9 -9 -15 -9 -24 0 -10 10 -8 19 6 45 47 81 85 89 99 22z m152 -9 c47 -17 53 -28 23 -41 -14 -6 -24 -20 -26 -37 -4 -30 6 -36 26 -16 9 9 13 7 18 -5 8 -23 -13 -47 -41 -47 -36 0 -48 23 -40 78 5 41 4 50 -10 56 -9 3 -13 10 -10 16 8 13 12 13 60 -4z m-1070 -16 c17 -19 17 -21 -26 -59 -31 -27 -41 -43 -34 -50 8 -8 21 -3 47 14 43 29 55 31 80 8 24 -22 23 -42 -4 -53 -13 -5 -43 -22 -67 -39 -42 -28 -61 -32 -61 -10 0 10 -36 49 -46 49 -12 0 -44 43 -38 51 3 5 16 6 30 3 18 -5 24 -2 24 10 0 9 11 21 25 26 19 7 25 17 25 40 0 35 18 39 45 10z m-515 -123 c0 -29 1 -29 39 -23 22 3 42 2 45 -3 8 -12 -17 -61 -31 -61 -7 0 -13 -7 -13 -15 0 -18 -31 -35 -63 -35 -18 0 -35 -13 -60 -47 -33 -45 -34 -49 -16 -55 10 -4 19 -11 19 -16 0 -7 -109 -62 -124 -62 -5 0 -2 122 3 139 1 2 8 -2 16 -9 18 -15 28 -8 65 45 24 34 29 50 24 75 -8 36 9 75 46 107 23 20 26 21 38 6 6 -9 12 -30 12 -46z m-912 -52 c124 -63 172 -95 172 -116 0 -21 -65 -119 -84 -125 -11 -3 -25 0 -34 10 -14 14 -13 20 17 61 18 26 31 48 29 50 -6 6 -235 132 -252 138 -27 11 -18 47 11 47 8 0 72 -29 141 -65z m394 -2 c2 -15 12 -32 23 -38 44 -22 77 -55 71 -70 -7 -19 -29 -10 -88 37 -32 25 -40 27 -57 16 -33 -20 -35 -2 -5 41 34 47 51 52 56 14z m1156 6 c17 -27 7 -38 -63 -74 -31 -15 -53 -30 -50 -33 6 -6 86 18 100 30 12 11 42 10 50 -2 3 -5 -11 -18 -32 -30 l-38 -21 43 7 c34 5 42 3 42 -9 0 -9 -10 -18 -22 -22 -13 -3 -32 -10 -43 -14 -91 -36 -128 -33 -79 6 l29 23 -32 0 c-20 0 -33 5 -33 13 0 7 -9 19 -20 27 -21 15 -27 45 -11 54 5 3 14 -1 21 -9 12 -14 15 -13 34 4 12 10 30 21 41 23 12 2 21 13 23 26 4 28 23 28 40 1z m-1200 -106 c8 -8 32 -23 53 -34 49 -25 51 -44 4 -36 -41 7 -46 -5 -8 -22 20 -9 23 -15 14 -24 -9 -9 -19 -8 -44 7 -18 10 -49 28 -69 39 -42 23 -50 47 -16 47 17 0 19 3 10 12 -7 7 -12 18 -12 25 0 16 48 6 68 -14z m-56 -88 c24 -14 55 -30 71 -36 29 -12 37 -39 11 -39 -14 0 -119 53 -138 70 -7 8 -1 30 9 30 3 0 24 -11 47 -25z m-702 -43 c0 -10 -11 -29 -25 -42 -14 -13 -25 -27 -25 -32 0 -5 39 -52 86 -105 47 -53 92 -109 100 -124 13 -26 13 -29 -6 -39 -30 -16 -47 -3 -139 109 -45 54 -88 101 -95 104 -7 3 -23 -4 -37 -14 -29 -22 -52 -24 -68 -6 -13 16 -7 23 99 107 76 62 110 74 110 42z m722 -27 c40 -18 55 -30 51 -41 -6 -17 -9 -17 -34 -4 -24 13 -27 -11 -4 -30 8 -7 15 -16 15 -21 0 -12 -35 -12 -58 0 -9 4 -38 18 -64 30 -53 23 -58 33 -28 54 11 8 17 16 14 20 -12 11 8 27 29 23 12 -2 48 -16 79 -31z m634 -12 c13 -16 36 -40 50 -54 20 -21 25 -34 22 -65 -2 -32 -8 -40 -31 -48 -20 -7 -34 -7 -47 2 -23 14 -102 16 -128 3 -9 -5 -34 -16 -54 -24 -26 -11 -42 -27 -52 -50 -14 -36 -71 -67 -121 -67 -65 0 -109 47 -87 94 9 19 8 27 -4 36 -23 20 -17 66 12 89 33 26 62 26 94 1 32 -25 76 -25 118 0 36 22 103 29 68 7 -10 -7 -28 -20 -40 -29 -21 -17 -21 -17 9 -8 111 33 113 34 162 18 45 -15 64 -15 51 -2 -5 5 -27 11 -49 13 -14 2 -19 34 -7 48 9 11 9 16 -3 24 -23 15 -36 10 -58 -18 l-20 -28 -1 33 c0 25 5 35 23 42 40 16 67 11 93 -17z m-658 -100 c32 -13 38 -26 26 -57 -4 -11 -19 -16 -45 -16 -37 0 -39 2 -39 30 0 25 -4 30 -25 30 -14 0 -25 -4 -25 -10 0 -5 -9 -10 -20 -10 -26 0 -28 46 -2 53 24 6 91 -4 130 -20z m-950 -130 c107 -75 207 -167 197 -183 -11 -18 -39 -10 -75 20 -37 33 -51 36 -81 19 -19 -10 -19 -12 -5 -34 20 -30 21 -75 3 -75 -25 0 -55 42 -142 196 -26 46 -40 98 -30 114 12 20 38 9 133 -57z m-226 -43 c97 -199 112 -240 92 -247 -31 -11 -80 62 -149 221 -19 46 -23 62 -13 73 20 24 42 10 70 -47z m-126 25 c4 -8 -1 -33 -10 -55 -9 -22 -16 -54 -16 -72 0 -41 -20 -106 -34 -111 -15 -6 -151 39 -182 60 -46 29 -2 45 52 19 16 -8 40 -17 54 -21 24 -6 26 -2 44 62 34 124 38 133 63 133 13 0 26 -7 29 -15z m2194 8 c-1 -28 -49 -188 -57 -190 -6 -2 -19 4 -29 14 -12 13 -19 14 -22 5 -2 -6 -12 -12 -23 -12 -23 0 -26 32 -4 50 8 7 15 29 15 50 0 51 36 90 85 90 19 0 35 -3 35 -7z m-922 -173 c3 -145 1 -150 -54 -150 -40 0 -67 20 -58 44 5 13 14 16 32 13 49 -9 52 -3 45 103 -6 103 -1 134 20 128 8 -3 13 -42 15 -138z m-157 -1 c7 -14 9 -43 5 -78 -4 -31 -9 -84 -13 -119 -6 -67 -18 -78 -74 -70 -38 5 -31 40 9 50 37 10 39 18 15 59 -16 26 -16 29 0 47 9 10 17 33 17 50 0 27 -4 32 -25 32 -29 0 -34 24 -7 39 29 17 61 12 73 -10z m955 -66 c-4 -21 -10 -62 -14 -92 -5 -35 -13 -58 -25 -65 -23 -14 -39 8 -27 38 4 12 11 46 15 76 8 59 19 80 42 80 12 0 14 -8 9 -37z m-1100 -180 c-33 -219 -37 -237 -59 -241 -14 -3 -17 5 -17 48 0 43 -3 53 -20 57 -26 7 -27 43 -1 43 27 0 51 27 51 56 0 19 -5 24 -25 24 -29 0 -45 28 -24 41 8 5 34 9 58 9 l43 0 -6 -37z m1067 -66 c12 -27 17 -56 15 -95 -3 -53 -5 -57 -29 -60 -30 -4 -46 13 -55 56 -6 28 -4 32 16 32 18 0 21 4 16 23 -3 12 -6 30 -6 39 0 11 -5 15 -15 12 -9 -4 -15 0 -15 8 0 45 50 34 73 -15z m77 -231 c11 -25 20 -49 20 -53 0 -4 9 -19 20 -33 26 -33 26 -54 0 -47 -12 3 -24 -1 -29 -11 -8 -13 -12 -14 -25 -3 -20 17 -76 129 -76 153 0 28 16 21 40 -18 12 -19 25 -33 28 -30 2 3 0 11 -6 18 -9 12 -16 42 -13 61 3 20 23 2 41 -37z m-1135 -26 c0 -8 -9 -16 -20 -18 -39 -8 -46 -22 -40 -81 18 -171 18 -161 -2 -161 -30 0 -43 36 -50 134 -4 71 -9 93 -19 89 -17 -6 -56 16 -51 30 9 27 182 34 182 7z m1275 -163 c0 -7 -6 -19 -12 -26 -10 -11 -10 -14 0 -18 6 -3 12 -9 12 -15 0 -9 15 -30 61 -86 5 -7 8 -16 5 -21 -13 -20 -45 4 -85 64 -27 42 -49 65 -64 67 -33 5 -27 21 13 35 47 16 70 16 70 0z m-1286 -192 c8 -8 18 -24 21 -36 7 -22 -2 -39 -13 -24 -20 28 -42 37 -57 25 -20 -17 -19 -84 1 -116 9 -13 14 -27 10 -31 -10 -10 -48 30 -67 71 -15 35 -16 43 -3 67 27 53 78 74 108 44z"/>
<path d="M4010 4110 c0 -33 3 -40 20 -40 24 0 25 11 5 50 -21 40 -25 38 -25 -10z"/>
<path d="M2980 3615 c26 -28 40 -31 58 -13 9 9 3 15 -26 25 -53 18 -59 16 -32 -12z"/>
<path d="M3430 3086 c0 -8 13 -17 29 -21 16 -3 34 -12 39 -18 13 -17 22 -47 14 -46 -4 1 -17 1 -29 0 -32 -1 -29 -21 2 -21 19 0 31 9 43 32 9 17 25 39 35 50 9 10 13 18 8 18 -6 0 -12 -4 -15 -9 -8 -12 -44 -4 -88 20 -25 13 -38 11 -38 -5z"/>
<path d="M2180 2943 c0 -4 11 -21 24 -38 20 -25 27 -28 38 -17 11 11 10 16 -7 28 -31 24 -55 35 -55 27z"/>
<path d="M4005 2930 c-4 -12 -5 -24 -2 -27 3 -2 8 5 12 17 4 12 5 24 2 27 -3 2 -8 -5 -12 -17z"/>
<path d="M3981 2834 c0 -11 3 -14 6 -6 3 7 2 16 -1 19 -3 4 -6 -2 -5 -13z"/>
<path d="M3980 2156 c0 -8 5 -18 10 -21 6 -3 10 1 10 9 0 8 -4 18 -10 21 -5 3 -10 -1 -10 -9z"/>
<path d="M2360 4570 c0 -28 94 -171 176 -267 11 -12 44 -51 74 -86 30 -36 56 -64 58 -62 6 6 -180 298 -230 363 -45 56 -78 78 -78 52z"/>
<path d="M6647 4272 c-21 -23 -22 -61 -2 -98 9 -19 11 -32 5 -38 -12 -12 -13 -49 -1 -42 4 3 12 20 16 38 l7 33 10 -27 c5 -16 16 -28 24 -28 9 0 12 5 8 11 -3 6 -9 46 -13 88 -6 82 -21 99 -54 63z m33 -42 c0 -31 -16 -41 -26 -15 -8 19 2 45 16 45 5 0 10 -13 10 -30z"/>
<path d="M6537 4263 c-11 -10 -8 -91 3 -98 7 -4 7 -12 0 -25 -13 -24 -13 -68 -1 -54 5 5 11 20 13 33 5 37 28 39 28 2 0 -19 5 -31 13 -31 10 0 11 15 6 68 -5 37 -8 77 -8 90 -1 16 -7 22 -24 22 -13 0 -27 -3 -30 -7z m37 -29 c10 -27 7 -56 -6 -52 -15 5 -24 68 -10 68 6 0 13 -7 16 -16z"/>
<path d="M2012 4243 c4 -21 100 -100 223 -185 90 -61 185 -120 185 -114 0 7 -233 211 -299 261 -74 56 -115 70 -109 38z"/>
<path d="M6429 4248 c-5 -40 5 -155 13 -165 18 -22 47 -15 54 13 8 31 -1 102 -17 138 -12 27 -48 36 -50 14z m38 -96 c4 -42 3 -54 -6 -47 -6 6 -13 40 -17 75 -4 51 -3 61 6 47 6 -10 14 -44 17 -75z"/>
<path d="M6311 4143 c1 -56 4 -85 8 -68 8 40 52 48 69 13 6 -13 11 -17 11 -10 1 21 -68 162 -79 162 -6 0 -10 -39 -9 -97z m38 20 c9 -21 9 -28 -1 -34 -18 -12 -28 -1 -28 32 0 36 13 37 29 2z"/>
<path d="M6212 4217 c-12 -14 -11 -171 1 -183 4 -4 7 2 7 14 0 27 10 52 21 52 5 0 9 -11 9 -25 0 -14 5 -25 10 -25 11 0 13 65 4 134 -7 48 -29 62 -52 33z m34 -62 c-3 -9 -10 -13 -16 -10 -12 7 -13 48 -3 59 11 11 27 -30 19 -49z"/>
<path d="M6112 4204 c-23 -16 -32 -77 -13 -88 5 -3 7 -24 4 -46 -4 -25 -2 -40 5 -40 6 0 12 12 14 28 2 15 8 27 13 27 6 0 11 -12 13 -27 4 -35 22 -37 22 -3 0 37 -23 165 -30 165 -3 0 -16 -7 -28 -16z m26 -55 c2 -32 1 -33 -13 -15 -18 24 -20 59 -2 54 6 -3 13 -20 15 -39z"/>
<path d="M6360 4010 c-11 -7 0 -10 39 -10 39 0 72 -8 118 -30 53 -25 75 -30 136 -29 111 2 140 17 33 18 -66 1 -97 6 -125 20 -74 40 -166 54 -201 31z"/>
<path d="M5893 3988 c-24 -32 -44 -92 -39 -114 5 -17 -2 -38 -19 -68 -28 -48 -31 -66 -11 -66 8 0 23 17 33 37 31 59 58 49 34 -12 -8 -19 3 -45 19 -45 4 0 10 12 13 28 4 15 13 56 22 92 19 76 34 142 35 153 0 12 -77 8 -87 -5z m53 -29 c3 -6 1 -16 -5 -22 -6 -6 -11 -21 -11 -33 0 -23 -16 -41 -28 -30 -8 8 -6 71 3 85 8 14 32 14 41 0z"/>
<path d="M6048 3953 c-24 -29 -41 -81 -35 -112 3 -15 2 -32 -3 -37 -9 -10 -50 -82 -50 -89 0 -3 8 -5 18 -5 12 0 25 14 37 40 26 58 43 52 37 -11 -7 -71 18 -62 36 12 25 102 33 134 43 166 6 18 7 37 4 43 -10 17 -71 11 -87 -7z m52 -25 c0 -23 -28 -93 -37 -93 -14 0 -15 57 -2 82 13 24 39 32 39 11z"/>
<path d="M6195 3898 c-30 -73 -33 -81 -55 -147 -25 -75 -14 -103 17 -44 20 37 31 41 70 28 6 -2 14 -22 18 -44 12 -70 28 -49 21 27 -18 201 -22 222 -40 222 -7 0 -21 -19 -31 -42z m35 -90 c0 -31 -4 -38 -20 -38 -23 0 -26 21 -9 69 14 40 29 24 29 -31z"/>
<path d="M1720 3921 c0 -22 96 -65 245 -111 259 -79 282 -84 185 -39 -192 90 -224 104 -305 134 -66 25 -125 33 -125 16z"/>
<path d="M6372 3887 c-22 -27 -45 -115 -46 -182 -1 -67 0 -69 27 -79 33 -12 54 5 74 61 20 58 29 179 13 198 -15 18 -54 20 -68 2z m33 -82 c-8 -74 -28 -138 -41 -133 -15 5 1 156 20 186 19 31 27 9 21 -53z"/>
<path d="M6553 3860 c-32 -13 -57 -67 -56 -122 0 -27 -2 -48 -6 -48 -10 0 -41 -56 -41 -74 0 -29 30 -16 47 21 27 55 44 55 37 -1 -6 -42 -5 -46 15 -46 16 0 21 6 21 24 0 14 9 62 21 108 30 117 33 138 21 138 -6 0 -16 2 -24 4 -7 3 -23 1 -35 -4z m27 -55 c0 -32 -21 -76 -34 -72 -18 6 -18 32 -2 72 17 39 36 39 36 0z"/>
<path d="M6678 3798 c-16 -23 -23 -48 -24 -79 0 -29 -8 -56 -21 -75 -32 -46 -38 -74 -16 -74 13 0 25 14 37 40 19 43 54 58 41 18 -19 -61 -18 -78 4 -78 14 0 21 6 21 18 0 11 10 54 21 98 12 43 24 98 26 122 l5 42 -35 0 c-29 0 -40 -6 -59 -32z m56 -35 c-10 -55 -24 -79 -35 -62 -19 30 0 99 26 99 13 0 15 -7 9 -37z"/>
<path d="M5982 3597 c-12 -13 -22 -32 -22 -42 0 -11 -12 -29 -27 -41 -16 -12 -25 -26 -20 -30 4 -4 18 3 32 16 30 29 44 20 21 -14 -9 -15 -12 -27 -6 -31 8 -5 60 64 60 81 0 3 9 17 20 31 11 14 20 32 20 39 0 23 -54 16 -78 -9z m29 -40 l-21 -21 0 21 c0 12 8 29 18 39 16 17 17 17 20 0 2 -10 -5 -28 -17 -39z"/>
<path d="M6260 3591 c47 -10 90 -33 120 -66 45 -48 145 -86 225 -84 37 1 36 2 -20 13 -76 16 -121 36 -164 74 -53 47 -108 72 -154 71 l-42 -1 35 -7z"/>
<path d="M6081 3549 c-17 -16 -31 -37 -31 -47 0 -10 -11 -28 -25 -40 -14 -13 -23 -27 -19 -33 4 -7 17 0 35 17 20 19 29 23 29 13 0 -8 -5 -20 -11 -26 -6 -6 -8 -17 -4 -23 7 -12 13 -4 83 111 l22 36 -24 11 c-21 9 -28 7 -55 -19z m49 -9 c0 -14 -40 -53 -47 -46 -11 10 16 56 32 56 8 0 15 -4 15 -10z"/>
<path d="M1211 3505 c-42 -19 -31 -37 35 -55 46 -13 304 -5 632 21 68 5 155 9 194 9 39 0 68 3 65 7 -7 6 -159 12 -682 28 -177 5 -215 3 -244 -10z"/>
<path d="M6160 3473 c-19 -27 -40 -54 -47 -61 -14 -14 -17 -32 -7 -32 4 0 12 7 19 16 19 27 55 9 56 -29 l1 -32 8 30 c9 34 11 87 3 68 -4 -12 -43 -19 -43 -8 0 3 7 17 17 31 12 19 18 22 24 12 10 -16 16 -10 24 25 11 44 -17 34 -55 -20z"/>
<path d="M6294 3462 c-21 -13 -61 -87 -68 -123 -5 -31 -4 -37 14 -42 15 -4 28 5 50 31 17 20 30 44 30 54 0 9 5 20 10 23 16 10 12 52 -6 59 -19 7 -17 7 -30 -2z m0 -72 c-18 -50 -39 -78 -50 -67 -6 6 19 65 44 105 23 36 26 18 6 -38z"/>
<path d="M6380 3394 c0 -11 6 -14 21 -9 16 5 20 4 15 -6 -3 -8 -9 -22 -12 -31 -10 -27 -32 -21 -36 10 -4 24 -5 25 -12 7 -4 -11 -12 -28 -17 -37 -12 -24 -11 -28 6 -28 18 0 18 -1 5 -34 -7 -21 -6 -26 5 -26 8 0 15 4 15 9 0 5 18 40 39 77 22 38 37 72 35 76 -10 15 -64 9 -64 -8z"/>
<path d="M6461 3334 c-12 -15 -21 -32 -21 -40 0 -7 -3 -19 -6 -27 -3 -9 1 -17 10 -19 14 -3 14 -6 2 -30 -11 -20 -12 -28 -3 -28 7 0 32 34 56 76 35 61 41 78 30 85 -25 15 -47 10 -68 -17z m49 -8 c0 -8 -8 -22 -17 -32 -17 -17 -18 -17 -21 0 -2 9 -1 24 2 32 7 18 36 18 36 0z"/>
<path d="M5078 3283 c7 -3 16 -2 19 1 4 3 -2 6 -13 5 -11 0 -14 -3 -6 -6z"/>
<path d="M6305 3280 c3 -5 8 -10 11 -10 2 0 4 5 4 10 0 6 -5 10 -11 10 -5 0 -7 -4 -4 -10z"/>
<path d="M5180 3259 c104 -26 241 -60 265 -65 11 -2 40 -8 65 -13 137 -30 160 -32 195 -21 19 6 35 18 35 25 0 36 -152 60 -580 90 l-55 4 75 -20z"/>
<path d="M6401 3236 c-8 -9 -11 -19 -7 -23 9 -9 29 13 24 27 -2 8 -8 7 -17 -4z"/>
<path d="M5170 3005 c14 -8 59 -28 100 -46 41 -17 95 -40 120 -51 25 -11 61 -27 80 -35 19 -9 49 -21 65 -28 17 -8 109 -45 205 -84 169 -69 240 -85 255 -60 10 14 -20 45 -58 59 -18 7 -41 16 -52 21 -42 17 -721 239 -732 239 -5 -1 3 -7 17 -15z"/>
<path d="M4860 2848 c63 -59 292 -245 360 -292 89 -62 126 -79 151 -71 16 5 17 10 8 28 -7 12 -21 29 -33 39 -42 36 -248 168 -370 238 -17 9 -56 32 -86 49 -44 26 -50 28 -30 9z"/>
<path d="M4644 2631 c20 -22 26 -25 26 -13 0 4 -10 13 -22 21 -23 14 -23 14 -4 -8z"/>
<path d="M2435 2630 c-11 -4 -81 -32 -155 -60 -178 -68 -168 -64 -225 -88 -27 -12 -96 -40 -153 -62 -217 -85 -319 -147 -282 -171 8 -5 29 -6 45 -3 30 5 819 393 800 393 -5 0 -19 -4 -30 -9z"/>
<path d="M3428 2570 c-49 -466 -57 -643 -33 -690 18 -35 30 -38 45 -11 11 21 12 403 1 631 -5 124 -7 130 -13 70z"/>
<path d="M4361 2596 c-1 -5 3 -23 8 -40 6 -17 17 -58 26 -91 59 -211 115 -355 140 -355 20 0 20 46 0 84 -8 15 -15 35 -15 42 0 14 -3 22 -33 82 -9 19 -17 38 -17 43 0 5 -22 55 -49 112 -26 56 -51 109 -54 117 -3 8 -6 11 -6 6z"/>
<path d="M4700 2574 c0 -9 339 -394 435 -492 116 -121 165 -147 165 -90 0 22 -114 140 -415 426 -153 147 -185 174 -185 156z"/>
<path d="M2433 2429 c-29 -38 -53 -74 -53 -79 0 -6 -3 -10 -7 -10 -5 0 -24 -24 -43 -53 -19 -28 -38 -54 -42 -57 -4 -3 -21 -32 -38 -64 -21 -40 -27 -63 -21 -69 15 -15 43 13 96 94 64 97 179 309 167 308 -4 0 -31 -31 -59 -70z"/>
</g>
</svg>